<svg width="17" height="17" viewBox="0 0 17 17" fill="none" xmlns="http://www.w3.org/2000/svg"><path d="M.5 7.22c-.27 0-.5.2-.5.47v6.95c0 .26.23.47.5.47h3.04v-7.9h-3.04Zm16.5 2.6c0-.6-.34-1.12-.86-1.4.2-.28.32-.61.32-.94 0-.91-.8-1.65-1.76-1.65h-3.7c.11-.49.27-1.21.37-1.97.29-1.98.1-3.08-.6-3.46a1.6 1.6 0 0 0-1.31-.13c-.32.11-.76.4-1 1.09l-.98 2.4c-.49 1.14-2 2.35-2.94 3.01v8.55c1.74.58 3.55.87 5.4.87h4.04c.96 0 1.75-.74 1.75-1.65 0-.31-.09-.61-.26-.87.58-.27.99-.84.99-1.49 0-.33-.11-.66-.32-.93.52-.3.86-.82.86-1.42Z" fill="#24B80C"/></svg>